<svg width="136" height="40" viewBox="0 0 136 40" fill="none" xmlns="http://www.w3.org/2000/svg">
<path fill-rule="evenodd" clip-rule="evenodd" d="M52.1497 12.7773V12.7775L52.1244 12.7773C50.6738 12.7773 49.4979 13.925 49.4979 15.3407C49.4979 16.7564 50.6738 17.9041 52.1244 17.9041L52.1497 17.904V17.9041H69.3233H69.4999V17.8981C70.8402 17.8078 71.8993 16.6973 71.8993 15.3407C71.8993 13.9841 70.8402 12.8736 69.4999 12.7833V12.7773H69.3233H52.1497Z" fill="#F4F4F4"/>
<path fill-rule="evenodd" clip-rule="evenodd" d="M52.0005 29.0135C52.1121 29.0135 52.222 29.0051 52.3295 28.989V29.0135H69.4265H69.6797V29.0007C70.9556 28.8718 71.952 27.7791 71.952 26.4501C71.952 25.1211 70.9556 24.0283 69.6797 23.8994V23.8867H69.4265H52.3295V23.9111C52.222 23.895 52.1121 23.8867 52.0005 23.8867C50.6894 23.8867 49.6266 25.0344 49.6266 26.4501C49.6266 27.8658 50.6894 29.0135 52.0005 29.0135Z" fill="#F8990B"/>
<path d="M4.37601 2.71814C4.37601 3.02889 4.30412 3.3118 4.16035 3.56689C4.01657 3.81734 3.80322 4.01677 3.52031 4.16519C3.24203 4.3136 2.90346 4.38781 2.50459 4.38781H1.89238V5.95312H0.347939V1.02761H2.50459C3.10753 1.02761 3.56901 1.18066 3.88902 1.48677C4.21368 1.79287 4.37601 2.20333 4.37601 2.71814ZM2.33067 3.17035C2.65069 3.17035 2.8107 3.01961 2.8107 2.71814C2.8107 2.41668 2.65069 2.26594 2.33067 2.26594H1.89238V3.17035H2.33067ZM13.9169 5.95312L12.9916 4.18606H12.9846V5.95312H11.4402V1.02761H13.736C14.1348 1.02761 14.4757 1.0995 14.7587 1.24327C15.0416 1.38241 15.2526 1.57489 15.3917 1.8207C15.5355 2.06187 15.6074 2.33551 15.6074 2.64162C15.6074 2.97091 15.5146 3.26311 15.3291 3.51819C15.1482 3.77328 14.8862 3.95648 14.543 4.06779L15.6144 5.95312H13.9169ZM12.9846 3.15643H13.5968C13.7453 3.15643 13.8566 3.12397 13.9308 3.05904C14.005 2.98947 14.0421 2.88279 14.0421 2.73902C14.0421 2.60915 14.0027 2.50712 13.9238 2.43291C13.8496 2.3587 13.7406 2.3216 13.5968 2.3216H12.9846V3.15643ZM25.0753 6.00182C24.6115 6.00182 24.1848 5.89283 23.7952 5.67485C23.4102 5.45686 23.1041 5.1554 22.8769 4.77044C22.6496 4.38549 22.536 3.95184 22.536 3.46949C22.536 2.98715 22.6496 2.5535 22.8769 2.16855C23.1041 1.78359 23.4102 1.48445 23.7952 1.2711C24.1848 1.05312 24.6115 0.944123 25.0753 0.944123C25.5391 0.944123 25.9634 1.05312 26.3484 1.2711C26.7333 1.48445 27.0371 1.78359 27.2597 2.16855C27.487 2.5535 27.6006 2.98715 27.6006 3.46949C27.6006 3.95184 27.487 4.38549 27.2597 4.77044C27.0371 5.1554 26.731 5.45686 26.3414 5.67485C25.9565 5.89283 25.5344 6.00182 25.0753 6.00182ZM25.0753 4.56174C25.3814 4.56174 25.6179 4.46434 25.7849 4.26954C25.9518 4.07011 26.0353 3.80343 26.0353 3.46949C26.0353 3.13092 25.9518 2.86424 25.7849 2.66945C25.6179 2.47001 25.3814 2.3703 25.0753 2.3703C24.7645 2.3703 24.5257 2.47001 24.3587 2.66945C24.1917 2.86424 24.1082 3.13092 24.1082 3.46949C24.1082 3.80343 24.1917 4.07011 24.3587 4.26954C24.5257 4.46434 24.7645 4.56174 25.0753 4.56174ZM38.1688 1.02761V4.20693C38.1688 4.79595 38.0135 5.24352 37.7027 5.54962C37.3966 5.85109 36.9653 6.00182 36.4087 6.00182C35.8104 6.00182 35.335 5.83718 34.9826 5.50788C34.6301 5.17858 34.4538 4.69856 34.4538 4.06779H35.9774C35.9774 4.26722 36.0099 4.40868 36.0748 4.49217C36.1397 4.57101 36.2278 4.61043 36.3392 4.61043C36.4319 4.61043 36.5038 4.58029 36.5548 4.51999C36.6058 4.4597 36.6313 4.35535 36.6313 4.20693V1.02761H38.1688ZM46.9544 2.25899V2.86424H48.4849V4.02605H46.9544V4.72175H48.6936V5.95312H45.4099V1.02761H48.6936V2.25899H46.9544ZM55.7108 3.48341C55.7108 2.99642 55.8082 2.56277 56.003 2.18246C56.2025 1.80215 56.4854 1.50764 56.8518 1.29893C57.2182 1.08558 57.6495 0.978908 58.1458 0.978908C58.5725 0.978908 58.9528 1.06007 59.2867 1.2224C59.6253 1.38009 59.8989 1.60503 60.1076 1.89723C60.321 2.18942 60.4624 2.53031 60.532 2.9199H58.9041C58.8299 2.75757 58.7232 2.63234 58.584 2.54422C58.4495 2.45146 58.2942 2.40508 58.1179 2.40508C57.8582 2.40508 57.6518 2.50248 57.4988 2.69727C57.3503 2.89207 57.2761 3.15411 57.2761 3.48341C57.2761 3.8127 57.3503 4.07475 57.4988 4.26954C57.6518 4.46434 57.8582 4.56174 58.1179 4.56174C58.2942 4.56174 58.4495 4.51768 58.584 4.42955C58.7232 4.33679 58.8299 4.20925 58.9041 4.04692H60.532C60.4624 4.43651 60.321 4.7774 60.1076 5.06959C59.8989 5.36178 59.6253 5.58904 59.2867 5.75137C58.9528 5.90906 58.5725 5.98791 58.1458 5.98791C57.6495 5.98791 57.2182 5.88356 56.8518 5.67485C56.4854 5.4615 56.2025 5.16467 56.003 4.78436C55.8082 4.40404 55.7108 3.9704 55.7108 3.48341ZM71.5304 1.02761V2.25203H70.2225V5.95312H68.6781V2.25203H67.3841V1.02761H71.5304Z" fill="#F4F4F4"/>
<path fill-rule="evenodd" clip-rule="evenodd" d="M23.8915 12.7773H38.9054H39.0188V12.7796C40.4377 12.8368 41.5698 13.9616 41.5698 15.3407C41.5698 16.7199 40.4377 17.8446 39.0188 17.9018V17.9041H38.9054H31.4621C28.6204 18.5484 27.1934 19.5665 26.3413 22.144V36.125V36.1386H26.3412C26.3339 37.5202 25.1947 38.6379 23.7905 38.6379C22.3864 38.6379 21.2472 37.5202 21.2398 36.1386H21.2398V36.125V15.3063L21.2397 15.2902L21.2398 15.2723V15.2528H21.2399C21.2574 13.8553 22.2531 12.7775 23.891 12.7773H23.8915Z" fill="#F4F4F4"/>
<path fill-rule="evenodd" clip-rule="evenodd" d="M2.72666 17.904V17.9041H2.75229H15.6072H15.632V17.904C17.1688 17.8918 18.4105 16.7488 18.4105 15.3407C18.4105 13.9326 17.1688 12.7896 15.632 12.7774V12.7773H15.6072H2.75229H2.72666V12.7775C1.23208 12.7904 0.0247498 13.933 0.0247498 15.3407C0.0247498 16.7484 1.23208 17.891 2.72666 17.904Z" fill="#F4F4F4"/>
<path fill-rule="evenodd" clip-rule="evenodd" d="M52.1504 40.0017V40.0017H52.1633H69.2228V39.9945C69.2851 39.9993 69.3481 40.0017 69.4116 40.0017C70.7855 40.0017 71.8992 38.8541 71.8992 37.4384C71.8992 36.0227 70.7855 34.875 69.4116 34.875C69.3481 34.875 69.2851 34.8775 69.2228 34.8823V34.875H52.1633H52.1504V34.875C50.7406 34.882 49.5999 36.027 49.5999 37.4384C49.5999 38.8497 50.7406 39.9947 52.1504 40.0017Z" fill="#1CB1D9"/>
<path fill-rule="evenodd" clip-rule="evenodd" d="M108.748 12.7053C109.527 12.3688 110.518 12.4754 111.298 12.9257L111.299 12.9231L127.846 21.3411C130.345 22.253 136.386 25.109 135.934 31.2912C135.934 31.2953 135.934 31.2994 135.933 31.3034C135.927 31.8701 135.855 32.4188 135.728 32.9502C135.617 33.5254 135.476 33.9413 135.314 34.2275C134.942 35.1368 134.429 35.9914 133.85 36.7952C132.674 38.4303 130.705 39.0888 128.862 39.5607C127.02 40.0326 125.015 39.6486 123.306 38.7525C121.629 37.8729 119.631 35.2282 118.937 34.2235L118.937 34.2237L118.932 34.2161C118.921 34.1999 118.91 34.1841 118.899 34.1687L118.902 34.1674L107.69 16.1055L107.692 16.1046C107.678 16.0801 107.664 16.0552 107.65 16.03C107.019 14.8509 107.516 13.3646 108.748 12.7053ZM122.869 31.7636C122.883 31.7853 122.908 31.8259 122.944 31.8819C123.288 32.4303 124.564 34.463 125.327 34.8633C126.177 35.3091 127.277 35.8683 128.193 35.6335C129.11 35.3988 130.323 34.818 130.908 34.0046C131.48 33.2099 131.766 32.308 131.779 31.2981C131.763 31.201 131.532 29.8894 130.694 28.6268C130.435 28.2363 129.046 27.496 127.986 26.9309L127.986 26.9309L127.986 26.9309C127.552 26.6996 127.174 26.4977 126.95 26.3611L125.545 25.61L116.051 20.7799L122.869 31.7636Z" fill="#F4F4F4"/>
<path fill-rule="evenodd" clip-rule="evenodd" d="M79.0974 2.46235C79.0974 2.44852 79.0976 2.43473 79.0978 2.42096L79.0978 2.41834H79.0978C79.1223 1.07873 80.2604 0 81.6608 0C83.0612 0 84.1994 1.07873 84.2238 2.41834H84.2246L84.2246 12.7328L84.226 12.7136C84.5043 15.2907 85.8263 17.4695 88.8595 17.778H97.1384C97.1748 17.7766 97.2119 17.7766 97.2495 17.778H97.2577V17.7783C97.6365 17.7938 98.0726 17.9477 98.4192 18.308C99.7751 19.7172 101.225 23.0207 102.183 25.2041L102.183 25.2042C102.306 25.4836 102.42 25.7447 102.526 25.9811L107.092 34.5857C107.112 34.619 107.132 34.6529 107.15 34.6875C107.806 35.9124 107.325 37.447 106.077 38.115C104.829 38.7831 103.286 38.3316 102.63 37.1067C102.542 36.9428 102.475 36.7733 102.427 36.6011L96.5626 25.5415L96.892 26.3735C95.393 23.4652 93.8889 23.1749 92.4551 22.9047H88.393C85.8734 23.5126 84.8596 24.1882 84.2261 27.941L84.2246 27.9232L84.2246 36.6134H84.2226C84.2243 36.6511 84.2251 36.6891 84.2251 36.7272C84.2251 38.1429 83.0774 39.2906 81.6617 39.2906C80.246 39.2906 79.0983 38.1429 79.0983 36.7272C79.0983 36.6891 79.0992 36.6511 79.1008 36.6134H79.0978L79.0978 2.50373C79.0976 2.48996 79.0974 2.47617 79.0974 2.46235Z" fill="#F4F4F4"/>
</svg>
